<?xml version="1.0" encoding="UTF-8" standalone="no"?>
<!-- Created with Inkscape (http://www.inkscape.org/) -->

<svg
   width="153.76427mm"
   height="153.76427mm"
   viewBox="0 0 153.76427 153.76427"
   version="1.1"
   id="svg1"
   xmlns="http://www.w3.org/2000/svg"
   xmlns:svg="http://www.w3.org/2000/svg">
  <defs
     id="defs1" />
  <g
     id="layer1"
     transform="translate(-16.894576,-60.966825)">
    <path
       id="rect1"
       style="stroke-width:0.212704"
       d="m 80.06488,60.966821 -6.877099,15.973702 a 64.105797,64.468651 0 0 0 -7.902877,3.288172 L 49.108114,73.789811 29.717049,93.180876 36.256702,109.6083 a 64.105797,64.468651 0 0 0 -3.032373,7.49825 l -16.329753,7.03109 v 27.42313 l 16.330269,7.0311 a 64.105797,64.468651 0 0 0 3.031857,7.49825 l -6.539653,16.42742 19.391065,19.39107 16.17679,-6.4394 a 64.105797,64.468651 0 0 0 7.90236,3.28817 l 6.877616,15.9737 h 27.42313 l 6.87762,-15.97319 a 64.105797,64.468651 0 0 0 7.90288,-3.28868 l 16.17627,6.4394 19.39106,-19.39107 -6.53913,-16.42742 a 64.105797,64.468651 0 0 0 3.03237,-7.49877 l 16.32975,-7.03058 v -27.42313 l -16.32975,-7.03058 a 64.105797,64.468651 0 0 0 -3.03237,-7.49876 l 6.53913,-16.427424 -19.39106,-19.391065 -16.17627,6.438884 a 64.105797,64.468651 0 0 0 -7.9034,-3.288688 l -6.8771,-15.973186 z m 13.711825,41.550439 a 35.132938,35.331802 0 0 1 35.132735,35.33169 35.132938,35.331802 0 0 1 -35.132735,35.33169 35.132938,35.331802 0 0 1 -35.132739,-35.33169 35.132938,35.331802 0 0 1 35.132739,-35.33169 z" />
  </g>
</svg>
